# xmcd
#
# Track frame offsets:
#	150
#	24605
#	46137
#	64037
#	84152
#	104427
#	122297
#	145367
#	166765
#	192677
#
# Disc length: 2910 seconds
#
# Revision: 3
# Processed by: cddbd v1.5.2PL0 Copyright (c) Steve Scherf et al.
# Submitted via: EZCDAudioConverter 8.0.2.1
#
DISCID=7e0b5c0a
DTITLE=Various Artist - Nguyện Ước Đầu Xuân
DYEAR=1998
DGENRE=Contemporary Pop
TTITLE0=Trang Thanh Lan, Quang Bình - Rước dâu trên đường quê
TTITLE1=Chế Linh - Nguyện Ước Đầu Xuân
TTITLE2=Thanh Lan - Đoản ca xuân
TTITLE3=Chế Linh, Hương Lan - Nàng xuân chung tình
TTITLE4=Phuong Lam - Tôi sẽ về
TTITLE5=Trang Thanh Lan, Phương Lam - Giấc mơ xuân
TTITLE6=Thanh Lan - Điệp khúc mùa xuân
TTITLE7=Hương Lan - Chiều xuân
TTITLE8=Hương Lan, Phương Lam - Mỗi năm hoa đào nở
TTITLE9=Quang Bình - Ru em mùa xuân
EXTD=
EXTT0=
EXTT1=
EXTT2=
EXTT3=
EXTT4=
EXTT5=
EXTT6=
EXTT7=
EXTT8=
EXTT9=
PLAYORDER=
